<svg width="1140" height="716" viewBox="0 0 1140 716" fill="none" xmlns="http://www.w3.org/2000/svg">
<path d="M168.142 158.753C164.142 96.7532 177.342 -17.2469 398.142 62.7531C444.142 79.4198 528.542 139.553 554.142 62.7531C586.142 -33.247 924.142 2.7531 1006.14 28.7531C1088.14 54.7531 1118.14 266.753 1044.14 314.753C987.684 351.375 906.142 364.753 948.142 466.753C964.808 496.086 1016.94 575.553 948.142 658.753C879.342 741.953 727.475 645.42 660.142 586.753C646.142 567.42 608.542 523.153 570.142 500.753C522.142 472.753 432.142 536.753 398.142 576.753C370.942 608.753 265.475 606.086 216.142 600.753C150.808 596.086 16.5418 565.553 2.14178 480.753C-12.2582 395.953 49.4751 382.753 82.1418 386.753C134.142 381.42 230.542 349.953 200.142 266.753C169.742 183.553 166.142 160.086 168.142 158.753Z" fill="#EDFFD6"/>
<path d="M610.045 651.606C554.397 622.744 425.982 532.896 357.512 404.4C346.151 384.586 349.244 358.978 352.211 348.651C364.036 318.061 424.713 278.674 572.829 365.846C720.946 453.017 700.098 345.039 671.16 280.153C659.44 248.454 656.481 172.258 738.404 121.074C840.807 57.0936 865.718 213.438 905.715 296.023C945.712 378.607 1088.22 334.922 1120.43 462.446C1146.2 564.464 1061 555.823 1015.18 538.751C961.394 536.499 840.504 552.547 787.246 634.757C733.989 716.967 646.922 680.244 610.045 651.606Z" fill="#FAF0E8"/>
</svg>
