<svg width="659" height="1091" viewBox="0 0 659 1091" fill="none" xmlns="http://www.w3.org/2000/svg">
<path d="M395 826C219 898 11.7996 490.8 123 482C262 471 259 538 316 510C361.6 487.6 346.333 404 333 365C324.333 336.333 303.6 266.2 290 215C273 151 311 82.0001 410 93.0001C447.57 97.1746 544 159 564 146C584 133 594.999 128 628.999 43.0001C639.174 17.5628 656.35 4.29119 658.999 1.20317V0.499996C659.48 0.451957 659.445 0.683194 658.999 1.20317V655L395 826Z" fill="#EDFFD6"/>
<path d="M547.15 974.513C476.024 841.976 982.772 791.843 631.678 401.928C504.482 199.233 232.1 384.89 220.226 393.666C153.318 443.115 146.113 543.508 180.206 581.636C197.615 600.789 239.79 635.372 269.223 620.483C306.014 601.87 324.944 729.447 365.447 738.91C405.949 748.373 393.021 859.395 362.919 916.481C338.837 962.15 427.619 1005.08 475.021 1020.84C522.773 1049.58 604.051 1080.54 547.15 974.513Z" fill="#FAF0E8"/>
</svg>
