<svg width="638" height="515" viewBox="0 0 638 515" fill="none" xmlns="http://www.w3.org/2000/svg">
<path d="M172 345C177 397.333 149.6 504.6 0 515L-9 -41C200 -34.6667 621 -18 633 -2C648 18 626 157 609 188C592 219 530 286 483 297C436 308 344 262 328 240C312 218 276 183 224 188C182.4 192 172 294.333 172 345Z" fill="#FAF0E8"/>
<path d="M-21.1908 10.805C4.47589 -10.5284 64.6092 -46.795 99.8092 -21.195C143.809 10.805 178.809 36.805 173.809 76.805C168.809 116.805 156.809 177.805 190.809 205.805C224.809 233.805 216.809 241.805 223.809 283.805C229.409 317.405 143.476 387.805 99.8092 418.805C85.1426 427.805 44.6092 448.805 -0.190775 460.805C-9.45724 463.287 -16.2879 465.127 -21.1908 466.459V466.805C-30.4443 469.184 -39.9914 471.564 -21.1908 466.459V10.805Z" fill="#EDFFD6"/>
</svg>
