<svg width="89" height="57" viewBox="0 0 89 57" fill="none" xmlns="http://www.w3.org/2000/svg">
<g filter="url(#filter0_d)">
<path d="M36.8529 1.89C37.4908 0.63 38.4052 0 39.596 0H51.2699C51.7377 0 52.1418 0.186667 52.482 0.560001C52.8222 0.933335 52.9923 1.37667 52.9923 1.89V47.11C52.9923 47.6233 52.8222 48.0667 52.482 48.44C52.1418 48.8133 51.7377 49 51.2699 49H39.7236C39.2558 49 38.8517 48.8133 38.5115 48.44C38.1713 48.0667 38.0012 47.6233 38.0012 47.11V25.41L33.3444 35.49C33.2168 35.8167 32.9191 36.19 32.4513 36.61C31.9835 37.03 31.3881 37.24 30.6651 37.24H26.3272C25.6042 37.24 25.0089 37.03 24.541 36.61C24.0732 36.19 23.7755 35.8167 23.648 35.49L18.9911 25.41V47.11C18.9911 47.6233 18.821 48.0667 18.4808 48.44C18.1406 48.8133 17.7366 49 17.2688 49H5.72239C5.25458 49 4.85056 48.8133 4.51034 48.44C4.17011 48.0667 4 47.6233 4 47.11V1.89C4 1.37667 4.17011 0.933335 4.51034 0.560001C4.85056 0.186667 5.25458 0 5.72239 0H17.3963C18.5871 0 19.5015 0.63 20.1394 1.89L28.4962 18.69L36.8529 1.89Z" fill="white"/>
<path d="M84.7448 46.55C84.9149 46.83 85 47.1333 85 47.46C85 47.88 84.8512 48.2533 84.5535 48.58C84.2983 48.86 83.9793 49 83.5966 49H67.1382C66.1601 49 65.3946 48.6267 64.8417 47.88L53.7419 32.83V47.11C53.7419 47.6233 53.5718 48.0667 53.2315 48.44C52.8913 48.8133 52.4873 49 52.0195 49H38.8783C38.4105 49 38.0065 48.8133 37.6663 48.44C37.326 48.0667 37.1559 47.6233 37.1559 47.11V1.89C37.1559 1.37667 37.326 0.933335 37.6663 0.560001C38.0065 0.186667 38.4105 0 38.8783 0H52.0195C52.4873 0 52.8913 0.186667 53.2315 0.560001C53.5718 0.933335 53.7419 1.37667 53.7419 1.89V15.05L63.821 1.19C64.4589 0.396667 65.2457 0 66.1813 0H81.5552C81.938 0 82.2569 0.163334 82.5121 0.490002C82.8098 0.770001 82.9586 1.12 82.9586 1.54C82.9586 1.91333 82.8523 2.24 82.6397 2.52L67.521 22.75L84.7448 46.55Z" fill="white"/>
</g>
<defs>
<filter id="filter0_d" x="0" y="0" width="89" height="57" filterUnits="userSpaceOnUse" color-interpolation-filters="sRGB">
<feFlood flood-opacity="0" result="BackgroundImageFix"/>
<feColorMatrix in="SourceAlpha" type="matrix" values="0 0 0 0 0 0 0 0 0 0 0 0 0 0 0 0 0 0 127 0"/>
<feOffset dy="4"/>
<feGaussianBlur stdDeviation="2"/>
<feColorMatrix type="matrix" values="0 0 0 0 0 0 0 0 0 0 0 0 0 0 0 0 0 0 0.25 0"/>
<feBlend mode="normal" in2="BackgroundImageFix" result="effect1_dropShadow"/>
<feBlend mode="normal" in="SourceGraphic" in2="effect1_dropShadow" result="shape"/>
</filter>
</defs>
</svg>
